<mxfile host="Electron" agent="Mozilla/5.0 (X11; Linux x86_64) AppleWebKit/537.36 (KHTML, like Gecko) draw.io/24.7.17 Chrome/128.0.6613.186 Electron/32.2.6 Safari/537.36" version="24.7.17">
  <diagram id="C5RBs43oDa-KdzZeNtuy" name="Page-1">
    <mxGraphModel dx="779" dy="756" grid="1" gridSize="10" guides="1" tooltips="1" connect="1" arrows="1" fold="1" page="1" pageScale="1" pageWidth="827" pageHeight="1169" math="0" shadow="0">
      <root>
        <mxCell id="WIyWlLk6GJQsqaUBKTNV-0" />
        <mxCell id="WIyWlLk6GJQsqaUBKTNV-1" parent="WIyWlLk6GJQsqaUBKTNV-0" />
        <mxCell id="eDxjZxHRRdhhKlU3jCEt-2" value="" style="edgeStyle=orthogonalEdgeStyle;rounded=0;orthogonalLoop=1;jettySize=auto;html=1;" edge="1" parent="WIyWlLk6GJQsqaUBKTNV-1" source="eDxjZxHRRdhhKlU3jCEt-0" target="eDxjZxHRRdhhKlU3jCEt-1">
          <mxGeometry relative="1" as="geometry" />
        </mxCell>
        <mxCell id="eDxjZxHRRdhhKlU3jCEt-0" value="String Unit" style="ellipse;whiteSpace=wrap;html=1;" vertex="1" parent="WIyWlLk6GJQsqaUBKTNV-1">
          <mxGeometry x="265.5" y="80" width="120" height="60" as="geometry" />
        </mxCell>
        <mxCell id="eDxjZxHRRdhhKlU3jCEt-1" value="Reset Device" style="rounded=1;whiteSpace=wrap;html=1;" vertex="1" parent="WIyWlLk6GJQsqaUBKTNV-1">
          <mxGeometry x="265.5" y="170" width="120" height="60" as="geometry" />
        </mxCell>
        <mxCell id="eDxjZxHRRdhhKlU3jCEt-4" value="" style="edgeStyle=orthogonalEdgeStyle;rounded=0;orthogonalLoop=1;jettySize=auto;html=1;" edge="1" parent="WIyWlLk6GJQsqaUBKTNV-1" target="eDxjZxHRRdhhKlU3jCEt-9">
          <mxGeometry relative="1" as="geometry">
            <mxPoint x="325.5" y="230" as="sourcePoint" />
          </mxGeometry>
        </mxCell>
        <mxCell id="eDxjZxHRRdhhKlU3jCEt-5" value="" style="edgeStyle=orthogonalEdgeStyle;rounded=0;orthogonalLoop=1;jettySize=auto;html=1;" edge="1" parent="WIyWlLk6GJQsqaUBKTNV-1" source="eDxjZxHRRdhhKlU3jCEt-9" target="eDxjZxHRRdhhKlU3jCEt-15">
          <mxGeometry relative="1" as="geometry" />
        </mxCell>
        <mxCell id="eDxjZxHRRdhhKlU3jCEt-6" value="No" style="edgeLabel;html=1;align=center;verticalAlign=middle;resizable=0;points=[];" vertex="1" connectable="0" parent="eDxjZxHRRdhhKlU3jCEt-5">
          <mxGeometry y="-1" relative="1" as="geometry">
            <mxPoint as="offset" />
          </mxGeometry>
        </mxCell>
        <mxCell id="eDxjZxHRRdhhKlU3jCEt-7" value="" style="edgeStyle=orthogonalEdgeStyle;rounded=0;orthogonalLoop=1;jettySize=auto;html=1;" edge="1" parent="WIyWlLk6GJQsqaUBKTNV-1" source="eDxjZxHRRdhhKlU3jCEt-9">
          <mxGeometry relative="1" as="geometry">
            <mxPoint x="325.5" y="420" as="targetPoint" />
          </mxGeometry>
        </mxCell>
        <mxCell id="eDxjZxHRRdhhKlU3jCEt-8" value="Yes" style="edgeLabel;html=1;align=center;verticalAlign=middle;resizable=0;points=[];" vertex="1" connectable="0" parent="eDxjZxHRRdhhKlU3jCEt-7">
          <mxGeometry x="-0.24" y="-3" relative="1" as="geometry">
            <mxPoint x="3" y="-8" as="offset" />
          </mxGeometry>
        </mxCell>
        <mxCell id="eDxjZxHRRdhhKlU3jCEt-9" value="Do Solenoids&amp;nbsp;&lt;div&gt;Fire?&lt;/div&gt;" style="rhombus;whiteSpace=wrap;html=1;" vertex="1" parent="WIyWlLk6GJQsqaUBKTNV-1">
          <mxGeometry x="261.5" y="270" width="128" height="100" as="geometry" />
        </mxCell>
        <mxCell id="eDxjZxHRRdhhKlU3jCEt-13" value="" style="edgeStyle=orthogonalEdgeStyle;rounded=0;orthogonalLoop=1;jettySize=auto;html=1;" edge="1" parent="WIyWlLk6GJQsqaUBKTNV-1" source="eDxjZxHRRdhhKlU3jCEt-15" target="eDxjZxHRRdhhKlU3jCEt-20">
          <mxGeometry relative="1" as="geometry" />
        </mxCell>
        <mxCell id="eDxjZxHRRdhhKlU3jCEt-14" value="Yes" style="edgeLabel;html=1;align=center;verticalAlign=middle;resizable=0;points=[];" vertex="1" connectable="0" parent="eDxjZxHRRdhhKlU3jCEt-13">
          <mxGeometry x="-0.1905" y="-1" relative="1" as="geometry">
            <mxPoint y="-11" as="offset" />
          </mxGeometry>
        </mxCell>
        <mxCell id="eDxjZxHRRdhhKlU3jCEt-15" value="Are There Output&lt;div&gt;Pulses From Processor?&lt;/div&gt;" style="rhombus;whiteSpace=wrap;html=1;" vertex="1" parent="WIyWlLk6GJQsqaUBKTNV-1">
          <mxGeometry x="433.5" y="258.75" width="130" height="122.5" as="geometry" />
        </mxCell>
        <mxCell id="eDxjZxHRRdhhKlU3jCEt-16" value="" style="edgeStyle=orthogonalEdgeStyle;rounded=0;orthogonalLoop=1;jettySize=auto;html=1;" edge="1" parent="WIyWlLk6GJQsqaUBKTNV-1" source="eDxjZxHRRdhhKlU3jCEt-20" target="eDxjZxHRRdhhKlU3jCEt-21">
          <mxGeometry relative="1" as="geometry" />
        </mxCell>
        <mxCell id="eDxjZxHRRdhhKlU3jCEt-17" value="No" style="edgeLabel;html=1;align=center;verticalAlign=middle;resizable=0;points=[];" vertex="1" connectable="0" parent="eDxjZxHRRdhhKlU3jCEt-16">
          <mxGeometry x="0.0316" relative="1" as="geometry">
            <mxPoint as="offset" />
          </mxGeometry>
        </mxCell>
        <mxCell id="eDxjZxHRRdhhKlU3jCEt-18" value="" style="edgeStyle=orthogonalEdgeStyle;rounded=0;orthogonalLoop=1;jettySize=auto;html=1;" edge="1" parent="WIyWlLk6GJQsqaUBKTNV-1" source="eDxjZxHRRdhhKlU3jCEt-20" target="eDxjZxHRRdhhKlU3jCEt-26">
          <mxGeometry relative="1" as="geometry" />
        </mxCell>
        <mxCell id="eDxjZxHRRdhhKlU3jCEt-19" value="Yes" style="edgeLabel;html=1;align=center;verticalAlign=middle;resizable=0;points=[];" vertex="1" connectable="0" parent="eDxjZxHRRdhhKlU3jCEt-18">
          <mxGeometry x="-0.3023" y="-2" relative="1" as="geometry">
            <mxPoint y="-12" as="offset" />
          </mxGeometry>
        </mxCell>
        <mxCell id="eDxjZxHRRdhhKlU3jCEt-20" value="Does Output Have&amp;nbsp;&lt;div&gt;Power?&lt;/div&gt;" style="rhombus;whiteSpace=wrap;html=1;" vertex="1" parent="WIyWlLk6GJQsqaUBKTNV-1">
          <mxGeometry x="610.5" y="267.5" width="130" height="105" as="geometry" />
        </mxCell>
        <mxCell id="eDxjZxHRRdhhKlU3jCEt-21" value="Apply Power" style="rounded=1;whiteSpace=wrap;html=1;" vertex="1" parent="WIyWlLk6GJQsqaUBKTNV-1">
          <mxGeometry x="615.5" y="420" width="120" height="60" as="geometry" />
        </mxCell>
        <mxCell id="eDxjZxHRRdhhKlU3jCEt-22" value="" style="edgeStyle=orthogonalEdgeStyle;rounded=0;orthogonalLoop=1;jettySize=auto;html=1;" edge="1" parent="WIyWlLk6GJQsqaUBKTNV-1" source="eDxjZxHRRdhhKlU3jCEt-26" target="eDxjZxHRRdhhKlU3jCEt-27">
          <mxGeometry relative="1" as="geometry" />
        </mxCell>
        <mxCell id="eDxjZxHRRdhhKlU3jCEt-23" value="No" style="edgeLabel;html=1;align=center;verticalAlign=middle;resizable=0;points=[];" vertex="1" connectable="0" parent="eDxjZxHRRdhhKlU3jCEt-22">
          <mxGeometry x="-0.2211" y="-1" relative="1" as="geometry">
            <mxPoint x="1" y="10" as="offset" />
          </mxGeometry>
        </mxCell>
        <mxCell id="eDxjZxHRRdhhKlU3jCEt-24" value="" style="edgeStyle=orthogonalEdgeStyle;rounded=0;orthogonalLoop=1;jettySize=auto;html=1;" edge="1" parent="WIyWlLk6GJQsqaUBKTNV-1" source="eDxjZxHRRdhhKlU3jCEt-26" target="eDxjZxHRRdhhKlU3jCEt-32">
          <mxGeometry relative="1" as="geometry" />
        </mxCell>
        <mxCell id="eDxjZxHRRdhhKlU3jCEt-25" value="Yes" style="edgeLabel;html=1;align=center;verticalAlign=middle;resizable=0;points=[];" vertex="1" connectable="0" parent="eDxjZxHRRdhhKlU3jCEt-24">
          <mxGeometry x="-0.369" y="2" relative="1" as="geometry">
            <mxPoint y="-8" as="offset" />
          </mxGeometry>
        </mxCell>
        <mxCell id="eDxjZxHRRdhhKlU3jCEt-26" value="Do Opto-Isolators&lt;div&gt;Saturate?&lt;/div&gt;" style="rhombus;whiteSpace=wrap;html=1;" vertex="1" parent="WIyWlLk6GJQsqaUBKTNV-1">
          <mxGeometry x="783.5" y="267.5" width="130" height="105" as="geometry" />
        </mxCell>
        <mxCell id="eDxjZxHRRdhhKlU3jCEt-27" value="Replace Opto-Isolator?" style="rounded=1;whiteSpace=wrap;html=1;" vertex="1" parent="WIyWlLk6GJQsqaUBKTNV-1">
          <mxGeometry x="788.5" y="420" width="120" height="60" as="geometry" />
        </mxCell>
        <mxCell id="eDxjZxHRRdhhKlU3jCEt-28" value="" style="edgeStyle=orthogonalEdgeStyle;rounded=0;orthogonalLoop=1;jettySize=auto;html=1;" edge="1" parent="WIyWlLk6GJQsqaUBKTNV-1" source="eDxjZxHRRdhhKlU3jCEt-32" target="eDxjZxHRRdhhKlU3jCEt-33">
          <mxGeometry relative="1" as="geometry" />
        </mxCell>
        <mxCell id="eDxjZxHRRdhhKlU3jCEt-29" value="No" style="edgeLabel;html=1;align=center;verticalAlign=middle;resizable=0;points=[];" vertex="1" connectable="0" parent="eDxjZxHRRdhhKlU3jCEt-28">
          <mxGeometry x="-0.1898" y="2" relative="1" as="geometry">
            <mxPoint as="offset" />
          </mxGeometry>
        </mxCell>
        <mxCell id="eDxjZxHRRdhhKlU3jCEt-30" style="edgeStyle=orthogonalEdgeStyle;rounded=0;orthogonalLoop=1;jettySize=auto;html=1;exitX=0;exitY=1;exitDx=0;exitDy=0;" edge="1" parent="WIyWlLk6GJQsqaUBKTNV-1" source="eDxjZxHRRdhhKlU3jCEt-32">
          <mxGeometry relative="1" as="geometry">
            <mxPoint x="333.5" y="390" as="targetPoint" />
            <Array as="points">
              <mxPoint x="1011.5" y="390" />
            </Array>
          </mxGeometry>
        </mxCell>
        <mxCell id="eDxjZxHRRdhhKlU3jCEt-31" value="Yes" style="edgeLabel;html=1;align=center;verticalAlign=middle;resizable=0;points=[];" vertex="1" connectable="0" parent="eDxjZxHRRdhhKlU3jCEt-30">
          <mxGeometry x="-0.7262" y="2" relative="1" as="geometry">
            <mxPoint as="offset" />
          </mxGeometry>
        </mxCell>
        <mxCell id="eDxjZxHRRdhhKlU3jCEt-32" value="Do Output Transistors&lt;div&gt;Saturate?&lt;/div&gt;" style="rhombus;whiteSpace=wrap;html=1;" vertex="1" parent="WIyWlLk6GJQsqaUBKTNV-1">
          <mxGeometry x="973.5" y="258.75" width="150" height="122.5" as="geometry" />
        </mxCell>
        <mxCell id="eDxjZxHRRdhhKlU3jCEt-33" value="Replace Transistor?" style="rounded=1;whiteSpace=wrap;html=1;" vertex="1" parent="WIyWlLk6GJQsqaUBKTNV-1">
          <mxGeometry x="988.5" y="420" width="120" height="60" as="geometry" />
        </mxCell>
        <mxCell id="eDxjZxHRRdhhKlU3jCEt-35" value="Unit Is Working" style="ellipse;whiteSpace=wrap;html=1;" vertex="1" parent="WIyWlLk6GJQsqaUBKTNV-1">
          <mxGeometry x="265.5" y="420" width="120" height="80" as="geometry" />
        </mxCell>
      </root>
    </mxGraphModel>
  </diagram>
</mxfile>
